<?xml version="1.0" encoding="UTF-8" standalone="no"?>
<svg
   xmlns:dc="http://purl.org/dc/elements/1.1/"
   xmlns:cc="http://creativecommons.org/ns#"
   xmlns:rdf="http://www.w3.org/1999/02/22-rdf-syntax-ns#"
   xmlns:svg="http://www.w3.org/2000/svg"
   xmlns="http://www.w3.org/2000/svg"
   viewBox="0 0 1066.6667 1066.6667"
   height="1066.6667"
   width="1066.6667"
   xml:space="preserve"
   id="svg2"
   version="1.1"><metadata
     id="metadata8"><rdf:RDF><cc:Work
         rdf:about=""><dc:format>image/svg+xml</dc:format><dc:type
           rdf:resource="http://purl.org/dc/dcmitype/StillImage" /></cc:Work></rdf:RDF></metadata><defs
     id="defs6" /><g
     transform="matrix(1.3333333,0,0,-1.3333333,0,1066.6667)"
     id="g10"><g
       transform="scale(0.1)"
       id="g12"><path
         id="path14"
         style="fill:#ffffff;fill-opacity:1;fill-rule:nonzero;stroke:none"
         d="M 8000,0 H 0 V 8000 H 8000 V 0" /><path
         id="path16"
         style="fill:#58595b;fill-opacity:1;fill-rule:nonzero;stroke:none"
         d="m 784.895,6275.77 c 39.668,39.67 61.492,92.4 61.492,148.51 0,56.07 -21.824,108.81 -61.492,148.47 -39.79,39.82 -93.137,61.47 -148.274,61.47 -0.793,0 -1.582,0 -2.402,0 0.617,55.99 -21.094,110.3 -61.465,150.67 -39.668,39.67 -92.402,61.5 -148.477,61.5 -56.101,0 -108.839,-21.83 -148.507,-61.5 -74.676,-74.7 -81.239,-192.07 -19.715,-274.25 L 0,6254.59 v -84.87 l 318.191,318.19 c 11.719,11.72 11.719,30.7 0,42.42 -58.472,58.48 -58.472,153.63 0,212.14 28.332,28.33 66.008,43.92 106.086,43.92 40.047,0 77.727,-15.59 106.055,-43.92 35.598,-35.6 50.891,-86.4 40.898,-135.94 -1.992,-9.84 1.114,-20.04 8.204,-27.13 7.089,-7.11 17.168,-10.13 27.16,-8.2 49.48,10.02 100.281,-5.27 135.879,-40.87 28.328,-28.33 43.914,-66 43.914,-106.05 0,-40.08 -15.586,-77.76 -43.914,-106.09 -58.481,-58.47 -153.664,-58.47 -212.141,0 -11.719,11.72 -30.703,11.72 -42.422,0 L 0,5830.28 v -84.87 l 510.645,510.64 c 82.121,-61.52 199.57,-54.96 274.25,19.72" /><path
         id="path18"
         style="fill:#58595b;fill-opacity:1;fill-rule:nonzero;stroke:none"
         d="m 784.895,2275.77 c 39.668,39.67 61.492,92.4 61.492,148.51 0,56.07 -21.824,108.81 -61.492,148.47 -39.79,39.82 -93.137,61.47 -148.274,61.47 -0.793,0 -1.582,0 -2.402,0 0.617,55.99 -21.094,110.3 -61.465,150.67 -39.668,39.67 -92.402,61.5 -148.477,61.5 -56.101,0 -108.839,-21.83 -148.507,-61.5 -74.676,-74.7 -81.239,-192.07 -19.715,-274.25 L 0,2254.59 v -84.87 l 318.191,318.19 c 11.719,11.72 11.719,30.7 0,42.42 -58.472,58.48 -58.472,153.63 0,212.14 28.332,28.33 66.008,43.92 106.086,43.92 40.047,0 77.727,-15.59 106.055,-43.92 35.598,-35.6 50.891,-86.4 40.898,-135.94 -1.992,-9.84 1.114,-20.04 8.204,-27.13 7.089,-7.11 17.168,-10.13 27.16,-8.2 49.48,10.02 100.281,-5.27 135.879,-40.87 28.328,-28.33 43.914,-66 43.914,-106.05 0,-40.08 -15.586,-77.76 -43.914,-106.09 -58.481,-58.47 -153.664,-58.47 -212.141,0 -11.719,11.72 -30.703,11.72 -42.422,0 L 0,1830.28 v -84.87 l 510.645,510.64 c 82.121,-61.52 199.57,-54.96 274.25,19.72" /><path
         id="path20"
         style="fill:#d9a05d;fill-opacity:1;fill-rule:nonzero;stroke:none"
         d="m 254.266,7129.89 c 69.14,0 138.281,26.31 190.929,78.93 105.293,105.26 105.293,276.59 0,381.85 L 270,7765.84 v 84.2 c 0,55.45 -16.82,107.03 -45.598,149.96 H 146.719 C 185.703,7961.85 210,7908.75 210,7850.04 v -96.62 c 0,-7.97 3.164,-15.59 8.789,-21.21 l 183.984,-183.96 c 81.883,-81.88 81.883,-215.12 0,-297.01 -81.914,-81.86 -215.156,-81.86 -297.011,0 l -80.2151,80.24 c -5.625,5.63 -13.2735,8.79 -21.21096,8.79 -0.20703,0 -0.41016,0 -0.58594,0 L 0,7340.04 v -67.86 l 63.3398,-63.36 c 52.6442,-52.62 121.7852,-78.93 190.9262,-78.93" /><path
         id="path22"
         style="fill:#d9a05d;fill-opacity:1;fill-rule:nonzero;stroke:none"
         d="M 678.066,8000 H 470.68 c 23.765,-16.72 55.3,-25.34 91.234,-25.34 35.777,0 75.734,8.48 116.152,25.34" /><path
         id="path24"
         style="fill:#d9a05d;fill-opacity:1;fill-rule:nonzero;stroke:none"
         d="M 0,120.039 V 60.0391 C 57.0664,60.0391 108.828,37.082 146.719,0 h 77.683 C 175.91,72.3281 93.4336,120.039 0,120.039" /><path
         id="path26"
         style="fill:#d9a05d;fill-opacity:1;fill-rule:nonzero;stroke:none"
         d="M 492.566,62.2891 C 471.27,99.1484 511.582,177.191 603.43,230.25 c 91.843,53 179.617,48.898 200.886,12.039 C 825.613,205.441 785.305,127.391 693.43,74.3594 601.492,21.25 513.84,25.4688 492.566,62.2891 Z M 856.289,272.289 C 814.246,345.152 690.027,349.488 573.43,282.219 456.887,214.898 398.555,105.121 440.598,32.2891 448.109,19.2695 458.426,8.62109 470.68,0 h 207.386 c 15.122,6.30859 30.301,13.6992 45.364,22.3906 116.543,67.3008 174.898,177.0704 132.859,249.8984" /><path
         id="path28"
         style="fill:#d9a05d;fill-opacity:1;fill-rule:nonzero;stroke:none"
         d="m 422.551,516.891 c -25.403,-144.11 -114.172,-254 -194.621,-239.879 -36.563,6.437 -67.559,38.347 -87.305,89.82 -21.711,56.719 -26.516,128.5 -13.535,202.117 23.933,135.762 104.387,241.09 180.555,241.09 4.691,0 9.375,-0.379 14.035,-1.199 36.562,-6.449 67.558,-38.348 87.304,-89.828 21.707,-56.723 26.543,-128.492 13.567,-202.121 z M 332.109,867.898 C 216.035,888.609 100.105,761.609 68.0273,579.379 53.1445,495.18 59.0313,412.102 84.6094,345.391 112.18,273.441 159.375,228.172 217.5,217.949 c 8.262,-1.469 16.465,-2.168 24.695,-2.168 107.348,0 209.59,121.41 239.414,290.68 14.856,84.199 8.965,167.289 -16.609,234 -27.566,71.949 -74.766,117.211 -132.891,127.437" /><path
         id="path30"
         style="fill:#d9a05d;fill-opacity:1;fill-rule:nonzero;stroke:none"
         d="m 254.266,3129.89 c 69.14,0 138.281,26.31 190.929,78.93 105.293,105.26 105.293,276.59 0,381.85 L 270,3765.84 v 84.2 c 0,148.88 -121.113,270 -270,270 v -60 c 115.781,0 210,-94.22 210,-210 v -96.62 c 0,-7.97 3.164,-15.59 8.789,-21.22 l 183.984,-183.95 c 81.883,-81.89 81.883,-215.13 0,-297.01 -81.914,-81.86 -215.156,-81.86 -297.011,0 l -80.2151,80.24 c -5.625,5.63 -13.2735,8.79 -21.21096,8.79 -0.20703,0 -0.41016,0 -0.58594,0 L 0,3340.04 v -67.86 l 63.3398,-63.36 c 52.6442,-52.62 121.7852,-78.93 190.9262,-78.93" /><path
         id="path32"
         style="fill:#d9a05d;fill-opacity:1;fill-rule:nonzero;stroke:none"
         d="m 693.43,4074.36 c -91.938,-53.11 -179.59,-48.89 -200.864,-12.07 -21.296,36.86 19.016,114.9 110.864,167.96 91.843,53 179.617,48.9 200.886,12.04 21.297,-36.85 -19.011,-114.9 -110.886,-167.93 z m -120,207.86 c -116.543,-67.32 -174.875,-177.1 -132.832,-249.93 22.09,-38.26 66.851,-57.62 121.316,-57.62 49.16,0 106.199,15.79 161.516,47.72 116.543,67.3 174.898,177.07 132.859,249.9 -42.043,72.86 -166.262,77.2 -282.859,9.93" /><path
         id="path34"
         style="fill:#d9a05d;fill-opacity:1;fill-rule:nonzero;stroke:none"
         d="m 422.551,4516.89 c -25.403,-144.11 -114.172,-254 -194.621,-239.88 -36.563,6.44 -67.559,38.35 -87.305,89.82 -21.711,56.72 -26.516,128.5 -13.535,202.12 23.933,135.76 104.387,241.09 180.555,241.09 4.691,0 9.375,-0.38 14.035,-1.2 36.562,-6.45 67.558,-38.35 87.304,-89.83 21.707,-56.72 26.543,-128.49 13.567,-202.12 z M 465,4740.46 c -27.566,71.95 -74.766,117.21 -132.891,127.44 -116.074,20.71 -232.004,-106.29 -264.0817,-288.52 -14.8828,-84.2 -8.996,-167.28 16.5821,-233.99 27.5706,-71.95 74.7656,-117.22 132.8906,-127.44 8.262,-1.47 16.465,-2.17 24.695,-2.17 107.348,0 209.59,121.41 239.414,290.68 14.856,84.2 8.965,167.29 -16.609,234" /><path
         id="path36"
         style="fill:#58595b;fill-opacity:1;fill-rule:nonzero;stroke:none"
         d="m 7215.11,5724.23 c -39.67,-39.67 -61.5,-92.4 -61.5,-148.51 0,-56.07 21.83,-108.81 61.5,-148.47 39.78,-39.82 93.13,-61.47 148.27,-61.47 0.79,0 1.58,0 2.4,0 -0.61,-55.99 21.1,-110.3 61.47,-150.67 39.66,-39.67 92.4,-61.5 148.47,-61.5 56.11,0 108.84,21.83 148.51,61.5 74.68,74.7 81.24,192.07 19.72,274.25 L 8000,5745.41 v 84.87 l -318.19,-318.19 c -11.72,-11.72 -11.72,-30.7 0,-42.42 58.47,-58.48 58.47,-153.63 0,-212.14 -28.33,-28.33 -66.01,-43.92 -106.09,-43.92 -40.05,0 -77.72,15.59 -106.05,43.92 -35.6,35.59 -50.89,86.4 -40.9,135.94 1.99,9.84 -1.11,20.04 -8.2,27.13 -5.69,5.68 -13.33,8.78 -21.21,8.78 -1.97,0 -3.96,-0.2 -5.95,-0.58 -49.45,-10.02 -100.28,5.24 -135.88,40.87 -28.33,28.33 -43.92,66 -43.92,106.05 0,40.08 15.59,77.76 43.92,106.09 58.48,58.47 153.66,58.47 212.14,0 11.72,-11.72 30.7,-11.72 42.42,0 L 8000,6169.72 v 84.87 l -510.64,-510.64 c -82.15,61.49 -199.6,54.96 -274.25,-19.72" /><path
         id="path38"
         style="fill:#58595b;fill-opacity:1;fill-rule:nonzero;stroke:none"
         d="m 7215.11,1724.23 c -39.67,-39.67 -61.5,-92.4 -61.5,-148.51 0,-56.07 21.83,-108.81 61.5,-148.47 39.78,-39.82 93.13,-61.47 148.27,-61.47 0.79,0 1.58,0 2.4,0 -0.61,-55.99 21.1,-110.3 61.47,-150.67 39.66,-39.67 92.4,-61.5 148.47,-61.5 56.11,0 108.84,21.83 148.51,61.5 74.68,74.7 81.24,192.07 19.72,274.25 L 8000,1745.41 v 84.87 l -318.19,-318.19 c -11.72,-11.72 -11.72,-30.7 0,-42.42 58.47,-58.48 58.47,-153.63 0,-212.14 -28.33,-28.33 -66.01,-43.92 -106.09,-43.92 -40.05,0 -77.72,15.59 -106.05,43.92 -35.6,35.59 -50.89,86.4 -40.9,135.94 1.99,9.84 -1.11,20.04 -8.2,27.13 -5.69,5.68 -13.33,8.78 -21.21,8.78 -1.97,0 -3.96,-0.2 -5.95,-0.58 -49.45,-10.02 -100.28,5.24 -135.88,40.87 -28.33,28.33 -43.92,66 -43.92,106.05 0,40.08 15.59,77.76 43.92,106.09 58.48,58.47 153.66,58.47 212.14,0 11.72,-11.72 30.7,-11.72 42.42,0 L 8000,2169.72 v 84.87 l -510.64,-510.64 c -82.15,61.49 -199.6,54.96 -274.25,-19.72" /><path
         id="path40"
         style="fill:#d9a05d;fill-opacity:1;fill-rule:nonzero;stroke:none"
         d="m 7730,7781.86 -191.22,-191.19 c -105.26,-105.29 -105.26,-276.56 0,-381.85 105.29,-105.24 276.56,-105.24 381.85,0 l 71.37,71.36 8,-8 v 67.86 0 c -5.8,0 -11.48,0.44 -17.17,0.91 -8.73,0.52 -17.4,-2.47 -23.64,-8.7 l -80.98,-81.01 c -81.91,-81.86 -215.15,-81.86 -297.01,0 -81.85,81.89 -81.85,215.13 0,297.01 l 200.01,199.98 c 5.63,5.63 8.79,13.24 8.79,21.21 v 80.6 c 0,58.71 24.3,111.81 63.28,149.96 h -77.68 c -28.78,-42.93 -45.6,-94.51 -45.6,-149.96 v -68.18" /><path
         id="path42"
         style="fill:#d9a05d;fill-opacity:1;fill-rule:nonzero;stroke:none"
         d="m 7529.31,8000 h -207.37 c 40.41,-16.86 80.37,-25.34 116.15,-25.34 35.91,0 67.45,8.62 91.22,25.34" /><path
         id="path44"
         style="fill:#d9a05d;fill-opacity:1;fill-rule:nonzero;stroke:none"
         d="m 7775.6,0 h 77.68 c 37.89,37.082 89.65,60.0391 146.72,60.0391 V 120.039 C 7906.56,120.039 7824.09,72.3281 7775.6,0" /><path
         id="path46"
         style="fill:#d9a05d;fill-opacity:1;fill-rule:nonzero;stroke:none"
         d="m 7507.43,62.2891 c -21.27,-36.8203 -108.98,-40.9805 -200.86,12.082 -91.87,53.0199 -132.19,131.0699 -110.89,167.9179 10.17,17.609 35.51,27.75 69.23,27.75 36.83,0 83.7,-12.098 131.66,-39.789 91.85,-53.059 132.16,-131.1016 110.86,-167.9609 z m 51.97,-30 c 42.05,72.8319 -16.28,182.6089 -132.83,249.9299 -116.6,67.332 -240.85,62.941 -282.86,-9.93 C 7101.67,199.461 7160.03,89.6914 7276.57,22.3906 7291.63,13.6992 7306.81,6.30859 7321.94,0 h 207.37 c 12.26,8.62109 22.58,19.2695 30.09,32.2891" /><path
         id="path48"
         style="fill:#d9a05d;fill-opacity:1;fill-rule:nonzero;stroke:none"
         d="m 7591.02,719.012 c 19.74,51.48 50.74,83.379 87.3,89.828 4.66,0.82 9.35,1.199 14.03,1.199 76.18,0 156.62,-105.328 180.56,-241.09 12.98,-73.617 8.17,-145.398 -13.53,-202.117 -19.75,-51.473 -50.75,-83.383 -87.31,-89.82 -80.54,-14.063 -169.22,95.769 -194.62,239.879 -12.98,73.629 -8.14,145.398 13.57,202.121 z M 7757.8,215.781 c 8.21,0 16.47,0.699 24.7,2.168 58.13,10.223 105.32,55.492 132.89,127.442 25.58,66.711 31.47,149.789 16.58,233.988 -32.11,182.262 -148.12,309.113 -264.08,288.519 -58.12,-10.226 -105.32,-55.488 -132.89,-127.437 -25.58,-66.711 -31.46,-149.801 -16.61,-234 29.82,-169.301 132.07,-290.68 239.41,-290.68" /><path
         id="path50"
         style="fill:#d9a05d;fill-opacity:1;fill-rule:nonzero;stroke:none"
         d="m 7730,3850.04 v -68.18 l -191.22,-191.19 c -105.26,-105.29 -105.26,-276.56 0,-381.85 105.29,-105.24 276.56,-105.24 381.85,0 l 71.37,71.36 8,-8 v 67.86 0 c -5.8,0 -11.48,0.44 -17.17,0.9 -8.73,0.53 -17.4,-2.46 -23.64,-8.7 l -80.98,-81 c -81.91,-81.86 -215.15,-81.86 -297.01,0 -81.85,81.88 -81.85,215.12 0,297.01 l 200.01,199.98 c 5.63,5.62 8.79,13.24 8.79,21.21 v 80.6 c 0,115.78 94.22,210 210,210 v 60 c -148.89,0 -270,-121.12 -270,-270" /><path
         id="path52"
         style="fill:#d9a05d;fill-opacity:1;fill-rule:nonzero;stroke:none"
         d="m 7195.68,4242.29 c 10.17,17.61 35.51,27.75 69.23,27.75 36.83,0 83.7,-12.1 131.66,-39.79 91.85,-53.06 132.16,-131.1 110.86,-167.96 -21.27,-36.82 -108.98,-40.98 -200.86,12.08 -91.87,53.02 -132.19,131.07 -110.89,167.92 z m 80.89,-219.9 c 55.31,-31.93 112.36,-47.72 161.52,-47.72 54.43,0 99.22,19.36 121.31,57.62 42.05,72.83 -16.28,182.61 -132.83,249.93 -116.6,67.33 -240.85,62.94 -282.86,-9.93 -42.04,-72.83 16.32,-182.6 132.86,-249.9" /><path
         id="path54"
         style="fill:#d9a05d;fill-opacity:1;fill-rule:nonzero;stroke:none"
         d="m 7591.02,4719.01 c 19.74,51.48 50.74,83.38 87.3,89.83 4.66,0.82 9.35,1.2 14.03,1.2 76.18,0 156.62,-105.33 180.56,-241.09 12.98,-73.62 8.17,-145.4 -13.53,-202.12 -19.75,-51.47 -50.75,-83.38 -87.31,-89.82 -80.54,-14.06 -169.22,95.77 -194.62,239.88 -12.98,73.63 -8.14,145.4 13.57,202.12 z m 166.78,-503.23 c 8.21,0 16.47,0.7 24.7,2.17 58.13,10.22 105.32,55.49 132.89,127.44 25.58,66.71 31.47,149.79 16.58,233.99 -32.11,182.26 -148.12,309.11 -264.08,288.52 -58.12,-10.23 -105.32,-55.49 -132.89,-127.44 -25.58,-66.71 -31.46,-149.8 -16.61,-234 29.82,-169.3 132.07,-290.68 239.41,-290.68" /><path
         id="path56"
         style="fill:#58595b;fill-opacity:1;fill-rule:nonzero;stroke:none"
         d="m 1215.11,7724.23 c -39.67,-39.67 -61.5,-92.4 -61.5,-148.51 0,-56.07 21.83,-108.81 61.5,-148.47 39.78,-39.82 93.13,-61.47 148.27,-61.47 0.79,0 1.58,0 2.4,0 -0.61,-55.98 21.1,-110.3 61.47,-150.67 39.66,-39.67 92.4,-61.5 148.47,-61.5 56.11,0 108.84,21.83 148.51,61.5 74.68,74.7 81.24,192.07 19.72,274.25 L 2254.59,8000 h -84.87 l -487.91,-487.91 c -11.72,-11.72 -11.72,-30.7 0,-42.42 58.47,-58.48 58.47,-153.63 0,-212.14 -28.33,-28.33 -66.01,-43.92 -106.09,-43.92 -40.05,0 -77.72,15.59 -106.05,43.92 -35.6,35.6 -50.89,86.4 -40.9,135.94 1.99,9.84 -1.11,20.04 -8.2,27.13 -5.69,5.68 -13.33,8.79 -21.21,8.79 -1.97,0 -3.96,-0.21 -5.95,-0.59 -49.45,-10.02 -100.28,5.24 -135.88,40.87 -28.33,28.33 -43.92,66.01 -43.92,106.05 0,40.08 15.59,77.76 43.92,106.09 58.48,58.48 153.66,58.48 212.14,0 11.72,-11.72 30.7,-11.72 42.42,0 L 1830.28,8000 h -84.87 l -256.05,-256.05 c -82.15,61.49 -199.6,54.96 -274.25,-19.72" /><path
         id="path58"
         style="fill:#58595b;fill-opacity:1;fill-rule:nonzero;stroke:none"
         d="m 2784.89,275.77 c 39.67,39.671 61.5,92.402 61.5,148.511 0,56.071 -21.83,108.809 -61.5,148.469 -39.78,39.82 -93.13,61.469 -148.27,61.469 -0.79,0 -1.58,0 -2.4,0 0.61,55.992 -21.09,110.301 -61.47,150.672 -39.66,39.668 -92.4,61.5 -148.47,61.5 -56.11,0 -108.84,-21.832 -148.51,-61.5 -74.68,-74.7 -81.24,-192.071 -19.72,-274.25 L 1745.41,0 h 84.87 l 487.91,487.91 c 11.72,11.719 11.72,30.699 0,42.422 -58.47,58.477 -58.47,153.629 0,212.137 28.33,28.332 66.01,43.922 106.09,43.922 40.05,0 77.72,-15.59 106.05,-43.922 35.6,-35.598 50.89,-86.399 40.9,-135.938 -1.99,-9.84 1.11,-20.043 8.2,-27.133 7.09,-7.109 17.17,-10.128 27.16,-8.199 49.48,10.02 100.29,-5.269 135.88,-40.867 28.33,-28.332 43.92,-66 43.92,-106.051 0,-40.082 -15.59,-77.761 -43.92,-106.09 -58.48,-58.472 -153.66,-58.472 -212.14,0 -11.72,11.719 -30.7,11.719 -42.42,0 L 2169.72,0 h 84.87 l 256.05,256.051 c 82.12,-61.52 199.57,-54.961 274.25,19.719" /><path
         id="path60"
         style="fill:#58595b;fill-opacity:1;fill-rule:nonzero;stroke:none"
         d="m 2487.91,4318.19 -806.1,-806.1 c -11.72,-11.72 -11.72,-30.7 0,-42.42 58.47,-58.48 58.47,-153.63 0,-212.14 -28.33,-28.33 -66.01,-43.92 -106.09,-43.92 -40.05,0 -77.72,15.59 -106.05,43.92 -35.6,35.59 -50.89,86.4 -40.9,135.94 1.99,9.84 -1.11,20.04 -8.2,27.13 -5.69,5.68 -13.33,8.78 -21.21,8.78 -1.97,0 -3.96,-0.2 -5.95,-0.58 -49.45,-10.02 -100.28,5.24 -135.88,40.87 -28.33,28.33 -43.92,66 -43.92,106.05 0,40.08 15.59,77.76 43.92,106.09 58.48,58.47 153.66,58.47 212.14,0 11.72,-11.72 30.7,-11.72 42.42,0 l 806.1,806.1 c 11.72,11.72 11.72,30.7 0,42.42 -58.47,58.48 -58.47,153.63 0,212.14 28.33,28.33 66.01,43.92 106.09,43.92 40.05,0 77.72,-15.59 106.05,-43.92 35.6,-35.6 50.89,-86.4 40.9,-135.94 -1.99,-9.84 1.11,-20.04 8.2,-27.13 7.09,-7.11 17.17,-10.13 27.16,-8.2 49.48,10.02 100.29,-5.27 135.88,-40.87 28.33,-28.33 43.92,-66 43.92,-106.05 0,-40.08 -15.59,-77.76 -43.92,-106.09 -58.48,-58.47 -153.66,-58.47 -212.14,0 -11.72,11.72 -30.7,11.72 -42.42,0 z m 296.98,-42.42 c 39.67,39.67 61.5,92.4 61.5,148.51 0,56.07 -21.83,108.81 -61.5,148.47 -39.78,39.82 -93.13,61.47 -148.27,61.47 -0.79,0 -1.58,0 -2.4,0 0.61,55.99 -21.09,110.3 -61.47,150.67 -39.66,39.67 -92.4,61.5 -148.47,61.5 -56.11,0 -108.84,-21.83 -148.51,-61.5 -74.68,-74.7 -81.24,-192.07 -19.72,-274.25 l -766.69,-766.69 c -82.15,61.49 -199.6,54.96 -274.25,-19.72 -39.67,-39.67 -61.5,-92.4 -61.5,-148.51 0,-56.07 21.83,-108.81 61.5,-148.47 39.78,-39.82 93.13,-61.47 148.27,-61.47 0.79,0 1.58,0 2.4,0 -0.61,-55.99 21.1,-110.3 61.47,-150.67 39.66,-39.67 92.4,-61.5 148.47,-61.5 56.11,0 108.84,21.83 148.51,61.5 74.68,74.7 81.24,192.07 19.72,274.25 l 766.69,766.69 c 82.12,-61.52 199.57,-54.96 274.25,19.72" /><path
         id="path62"
         style="fill:#d9a05d;fill-opacity:1;fill-rule:nonzero;stroke:none"
         d="m 2402.77,1251.24 c -81.91,-81.86 -215.15,-81.86 -297.01,0 l -80.21,80.24 c -5.63,5.63 -13.27,8.79 -21.21,8.79 -0.21,0 -0.41,0 -0.59,0 l -3.75,-0.23 c -5.8,0 -11.48,0.44 -17.17,0.9 -8.73,0.53 -17.4,-2.46 -23.64,-8.7 l -80.98,-81 c -81.91,-81.86 -215.15,-81.86 -297.01,0 -81.85,81.88 -81.85,215.12 0,297.01 l 200.01,199.98 c 5.63,5.62 8.79,13.24 8.79,21.21 v 80.6 c 0,115.78 94.22,210 210,210 115.78,0 210,-94.22 210,-210 v -96.62 c 0,-7.97 3.16,-15.59 8.79,-21.22 l 183.98,-183.95 c 81.89,-81.89 81.89,-215.13 0,-297.01 z M 2270,1765.84 v 84.2 c 0,148.88 -121.11,270 -270,270 -148.89,0 -270,-121.12 -270,-270 v -68.18 l -191.22,-191.19 c -105.26,-105.29 -105.26,-276.56 0,-381.85 105.29,-105.24 276.56,-105.24 381.85,0 l 71.37,71.36 71.34,-71.36 c 52.65,-52.62 121.79,-78.93 190.93,-78.93 69.14,0 138.28,26.31 190.93,78.93 105.29,105.26 105.29,276.59 0,381.85 L 2270,1765.84" /><path
         id="path64"
         style="fill:#d9a05d;fill-opacity:1;fill-rule:nonzero;stroke:none"
         d="m 1507.43,2062.29 c -21.27,-36.82 -108.98,-40.98 -200.86,12.08 -91.87,53.02 -132.19,131.07 -110.89,167.92 10.17,17.61 35.51,27.75 69.23,27.75 36.83,0 83.7,-12.1 131.66,-39.79 91.85,-53.06 132.16,-131.1 110.86,-167.96 z m 51.97,-30 c 42.05,72.83 -16.28,182.61 -132.83,249.93 -116.6,67.33 -240.85,62.94 -282.86,-9.93 -42.04,-72.83 16.32,-182.6 132.86,-249.9 55.31,-31.93 112.36,-47.72 161.52,-47.72 54.43,0 99.22,19.36 121.31,57.62" /><path
         id="path66"
         style="fill:#d9a05d;fill-opacity:1;fill-rule:nonzero;stroke:none"
         d="m 2693.43,2074.36 c -91.94,-53.11 -179.59,-48.89 -200.86,-12.07 -21.3,36.86 19.01,114.9 110.86,167.96 91.84,53 179.62,48.9 200.89,12.04 21.3,-36.85 -19.02,-114.9 -110.89,-167.93 z m -120,207.86 c -116.55,-67.32 -174.88,-177.1 -132.83,-249.93 22.09,-38.26 66.85,-57.62 121.31,-57.62 49.16,0 106.21,15.79 161.52,47.72 116.54,67.3 174.9,177.07 132.86,249.9 -42.04,72.86 -166.26,77.2 -282.86,9.93" /><path
         id="path68"
         style="fill:#d9a05d;fill-opacity:1;fill-rule:nonzero;stroke:none"
         d="m 1859.38,2366.83 c -19.75,-51.47 -50.75,-83.38 -87.31,-89.82 -80.54,-14.06 -169.22,95.77 -194.62,239.88 -12.98,73.63 -8.14,145.4 13.57,202.12 19.74,51.48 50.74,83.38 87.3,89.83 4.66,0.82 9.35,1.2 14.03,1.2 76.18,0 156.62,-105.33 180.56,-241.09 12.98,-73.62 8.17,-145.4 -13.53,-202.12 z m -191.49,501.07 c -58.12,-10.23 -105.32,-55.49 -132.89,-127.44 -25.58,-66.71 -31.46,-149.8 -16.61,-234 29.82,-169.3 132.07,-290.68 239.41,-290.68 8.21,0 16.47,0.7 24.7,2.17 58.13,10.22 105.32,55.49 132.89,127.44 25.58,66.71 31.47,149.79 16.58,233.99 -32.11,182.26 -148.12,309.11 -264.08,288.52" /><path
         id="path70"
         style="fill:#d9a05d;fill-opacity:1;fill-rule:nonzero;stroke:none"
         d="m 2422.55,2516.89 c -25.4,-144.11 -114.17,-254 -194.62,-239.88 -36.56,6.44 -67.56,38.35 -87.3,89.82 -21.71,56.72 -26.52,128.5 -13.54,202.12 23.94,135.76 104.38,241.09 180.56,241.09 4.68,0 9.37,-0.38 14.03,-1.2 36.56,-6.45 67.56,-38.35 87.3,-89.83 21.71,-56.72 26.55,-128.49 13.57,-202.12 z m -90.44,351.01 c -116.07,20.71 -232,-106.29 -264.08,-288.52 -14.89,-84.2 -9,-167.28 16.58,-233.99 27.57,-71.95 74.77,-117.22 132.89,-127.44 8.26,-1.47 16.46,-2.17 24.7,-2.17 107.34,0 209.59,121.41 239.41,290.68 14.85,84.2 8.97,167.29 -16.61,234 -27.57,71.95 -74.77,117.21 -132.89,127.44" /><path
         id="path72"
         style="fill:#d9a05d;fill-opacity:1;fill-rule:nonzero;stroke:none"
         d="m 2000,6060.04 c 115.78,0 210,-94.22 210,-210 v -96.62 c 0,-7.97 3.16,-15.59 8.79,-21.22 l 183.98,-183.95 c 81.89,-81.89 81.89,-215.13 0,-297.01 -81.91,-81.86 -215.15,-81.86 -297.01,0 l -80.21,80.24 c -5.63,5.63 -13.27,8.79 -21.21,8.79 -0.21,0 -0.41,0 -0.59,0 l -3.75,-0.23 c -5.8,0 -11.48,0.44 -17.17,0.9 -8.73,0.53 -17.4,-2.46 -23.64,-8.7 l -80.98,-81 c -81.91,-81.86 -215.15,-81.86 -297.01,0 -81.85,81.88 -81.85,215.12 0,297.01 l 200.01,199.98 c 5.63,5.62 8.79,13.24 8.79,21.21 v 80.6 c 0,115.78 94.22,210 210,210 z m -270,-210 v -68.18 l -191.22,-191.19 c -105.26,-105.29 -105.26,-276.56 0,-381.85 105.29,-105.24 276.56,-105.24 381.85,0 l 71.37,71.36 71.34,-71.36 c 52.65,-52.62 121.79,-78.93 190.93,-78.93 69.14,0 138.28,26.31 190.93,78.93 105.29,105.26 105.29,276.59 0,381.85 L 2270,5765.84 v 84.2 c 0,148.88 -121.11,270 -270,270 -148.89,0 -270,-121.12 -270,-270" /><path
         id="path74"
         style="fill:#d9a05d;fill-opacity:1;fill-rule:nonzero;stroke:none"
         d="m 1195.68,6242.29 c 10.17,17.61 35.51,27.75 69.23,27.75 36.83,0 83.7,-12.1 131.66,-39.79 91.85,-53.06 132.16,-131.1 110.86,-167.96 -21.27,-36.82 -108.98,-40.98 -200.86,12.08 -91.87,53.02 -132.19,131.07 -110.89,167.92 z m 80.89,-219.9 c 55.31,-31.93 112.36,-47.72 161.52,-47.72 54.43,0 99.22,19.36 121.31,57.62 42.05,72.83 -16.28,182.61 -132.83,249.93 -116.6,67.33 -240.85,62.94 -282.86,-9.93 -42.04,-72.83 16.32,-182.6 132.86,-249.9" /><path
         id="path76"
         style="fill:#d9a05d;fill-opacity:1;fill-rule:nonzero;stroke:none"
         d="m 2693.43,6074.36 c -91.94,-53.11 -179.59,-48.89 -200.86,-12.07 -21.3,36.86 19.01,114.9 110.86,167.96 91.84,53 179.62,48.9 200.89,12.04 21.3,-36.85 -19.02,-114.9 -110.89,-167.93 z m -120,207.86 c -116.55,-67.32 -174.88,-177.1 -132.83,-249.93 22.09,-38.26 66.85,-57.62 121.31,-57.62 49.16,0 106.21,15.79 161.52,47.72 116.54,67.3 174.9,177.07 132.86,249.9 -42.04,72.86 -166.26,77.2 -282.86,9.93" /><path
         id="path78"
         style="fill:#d9a05d;fill-opacity:1;fill-rule:nonzero;stroke:none"
         d="m 1591.02,6719.01 c 19.74,51.48 50.74,83.38 87.3,89.83 4.66,0.82 9.35,1.2 14.03,1.2 76.18,0 156.62,-105.33 180.56,-241.09 12.98,-73.62 8.17,-145.4 -13.53,-202.12 -19.75,-51.47 -50.75,-83.38 -87.31,-89.82 -80.54,-14.06 -169.22,95.77 -194.62,239.88 -12.98,73.63 -8.14,145.4 13.57,202.12 z m 166.78,-503.23 c 8.21,0 16.47,0.7 24.7,2.17 58.13,10.22 105.32,55.49 132.89,127.44 25.58,66.71 31.47,149.79 16.58,233.99 -32.11,182.26 -148.12,309.11 -264.08,288.52 -58.12,-10.23 -105.32,-55.49 -132.89,-127.44 -25.58,-66.71 -31.46,-149.8 -16.61,-234 29.82,-169.3 132.07,-290.68 239.41,-290.68" /><path
         id="path80"
         style="fill:#d9a05d;fill-opacity:1;fill-rule:nonzero;stroke:none"
         d="m 2127.09,6568.95 c 23.94,135.76 104.38,241.09 180.56,241.09 4.68,0 9.37,-0.38 14.03,-1.2 36.56,-6.45 67.56,-38.35 87.3,-89.83 21.71,-56.72 26.55,-128.49 13.57,-202.12 -25.4,-144.11 -114.17,-254 -194.62,-239.88 -36.56,6.44 -67.56,38.35 -87.3,89.82 -21.71,56.72 -26.52,128.5 -13.54,202.12 z m 90.41,-351 c 8.26,-1.47 16.46,-2.17 24.7,-2.17 107.34,0 209.59,121.41 239.41,290.68 14.85,84.2 8.97,167.29 -16.61,234 -27.57,71.95 -74.77,117.21 -132.89,127.44 -116.07,20.71 -232,-106.29 -264.08,-288.52 -14.89,-84.2 -9,-167.28 16.58,-233.99 27.57,-71.95 74.77,-117.22 132.89,-127.44" /><path
         id="path82"
         style="fill:#58595b;fill-opacity:1;fill-rule:nonzero;stroke:none"
         d="m 3257.53,5681.81 c 58.48,58.47 153.66,58.47 212.14,0 11.72,-11.72 30.7,-11.72 42.42,0 l 806.1,806.1 c 11.72,11.72 11.72,30.7 0,42.42 -58.47,58.48 -58.47,153.63 0,212.14 28.33,28.33 66.01,43.92 106.09,43.92 40.05,0 77.72,-15.59 106.05,-43.92 35.6,-35.6 50.89,-86.4 40.9,-135.94 -1.99,-9.84 1.11,-20.04 8.2,-27.13 7.09,-7.11 17.17,-10.13 27.16,-8.2 49.48,10.02 100.29,-5.27 135.88,-40.87 28.33,-28.33 43.92,-66 43.92,-106.05 0,-40.08 -15.59,-77.76 -43.92,-106.09 -58.48,-58.47 -153.66,-58.47 -212.14,0 -11.72,11.72 -30.7,11.72 -42.42,0 l -806.1,-806.1 c -11.72,-11.72 -11.72,-30.7 0,-42.42 58.47,-58.48 58.47,-153.63 0,-212.14 -28.33,-28.33 -66.01,-43.92 -106.09,-43.92 -40.05,0 -77.72,15.59 -106.05,43.92 -35.6,35.59 -50.89,86.4 -40.9,135.94 1.99,9.84 -1.11,20.04 -8.2,27.13 -5.69,5.68 -13.33,8.78 -21.21,8.78 -1.97,0 -3.96,-0.2 -5.95,-0.58 -49.45,-10.02 -100.28,5.24 -135.88,40.87 -28.33,28.33 -43.92,66 -43.92,106.05 0,40.08 15.59,77.76 43.92,106.09 z m 105.85,-316.03 c 0.79,0 1.58,0 2.4,0 -0.61,-55.99 21.1,-110.3 61.47,-150.67 39.66,-39.67 92.4,-61.5 148.47,-61.5 56.11,0 108.84,21.83 148.51,61.5 74.68,74.7 81.24,192.07 19.72,274.25 l 766.69,766.69 c 82.12,-61.52 199.57,-54.96 274.25,19.72 39.67,39.67 61.5,92.4 61.5,148.51 0,56.07 -21.83,108.81 -61.5,148.47 -39.78,39.82 -93.13,61.47 -148.27,61.47 -0.79,0 -1.58,0 -2.4,0 0.61,55.99 -21.09,110.3 -61.47,150.67 -39.66,39.67 -92.4,61.5 -148.47,61.5 -56.11,0 -108.84,-21.83 -148.51,-61.5 -74.68,-74.7 -81.24,-192.07 -19.72,-274.25 l -766.69,-766.69 c -82.15,61.49 -199.6,54.96 -274.25,-19.72 -39.67,-39.67 -61.5,-92.4 -61.5,-148.51 0,-56.07 21.83,-108.81 61.5,-148.47 39.78,-39.82 93.13,-61.47 148.27,-61.47" /><path
         id="path84"
         style="fill:#58595b;fill-opacity:1;fill-rule:nonzero;stroke:none"
         d="m 4742.47,2318.19 c -58.48,-58.47 -153.66,-58.47 -212.14,0 -11.72,11.72 -30.7,11.72 -42.42,0 l -806.1,-806.1 c -11.72,-11.72 -11.72,-30.7 0,-42.42 58.47,-58.48 58.47,-153.63 0,-212.14 -28.33,-28.33 -66.01,-43.92 -106.09,-43.92 -40.05,0 -77.72,15.59 -106.05,43.92 -35.6,35.59 -50.89,86.4 -40.9,135.94 1.99,9.84 -1.11,20.04 -8.2,27.13 -5.69,5.68 -13.33,8.78 -21.21,8.78 -1.97,0 -3.96,-0.2 -5.95,-0.58 -49.45,-10.02 -100.28,5.24 -135.88,40.87 -28.33,28.33 -43.92,66 -43.92,106.05 0,40.08 15.59,77.76 43.92,106.09 58.48,58.47 153.66,58.47 212.14,0 11.72,-11.72 30.7,-11.72 42.42,0 l 806.1,806.1 c 11.72,11.72 11.72,30.7 0,42.42 -58.47,58.48 -58.47,153.63 0,212.14 28.33,28.33 66.01,43.92 106.09,43.92 40.05,0 77.72,-15.59 106.05,-43.92 35.6,-35.6 50.89,-86.4 40.9,-135.94 -1.99,-9.84 1.11,-20.04 8.2,-27.13 7.09,-7.11 17.17,-10.13 27.16,-8.2 49.48,10.02 100.29,-5.27 135.88,-40.87 28.33,-28.33 43.92,-66 43.92,-106.05 0,-40.08 -15.59,-77.76 -43.92,-106.09 z m -105.85,316.03 c -0.79,0 -1.58,0 -2.4,0 0.61,55.99 -21.09,110.3 -61.47,150.67 -39.66,39.67 -92.4,61.5 -148.47,61.5 -56.11,0 -108.84,-21.83 -148.51,-61.5 -74.68,-74.7 -81.24,-192.07 -19.72,-274.25 l -766.69,-766.69 c -82.15,61.49 -199.6,54.96 -274.25,-19.72 -39.67,-39.67 -61.5,-92.4 -61.5,-148.51 0,-56.07 21.83,-108.81 61.5,-148.47 39.78,-39.82 93.13,-61.47 148.27,-61.47 0.79,0 1.58,0 2.4,0 -0.61,-55.99 21.1,-110.3 61.47,-150.67 39.66,-39.67 92.4,-61.5 148.47,-61.5 56.11,0 108.84,21.83 148.51,61.5 74.68,74.7 81.24,192.07 19.72,274.25 l 766.69,766.69 c 82.12,-61.52 199.57,-54.96 274.25,19.72 39.67,39.67 61.5,92.4 61.5,148.51 0,56.07 -21.83,108.81 -61.5,148.47 -39.78,39.82 -93.13,61.47 -148.27,61.47" /><path
         id="path86"
         style="fill:#d9a05d;fill-opacity:1;fill-rule:nonzero;stroke:none"
         d="m 3730,7781.86 -191.22,-191.19 c -105.26,-105.29 -105.26,-276.56 0,-381.85 105.29,-105.24 276.56,-105.24 381.85,0 l 71.37,71.36 71.34,-71.36 c 52.65,-52.62 121.79,-78.93 190.93,-78.93 69.14,0 138.28,26.31 190.93,78.93 105.29,105.26 105.29,276.59 0,381.85 L 4270,7765.84 v 84.2 c 0,55.45 -16.82,107.03 -45.6,149.96 h -77.68 c 38.98,-38.15 63.28,-91.25 63.28,-149.96 v -96.62 c 0,-7.97 3.16,-15.59 8.79,-21.21 l 183.98,-183.96 c 81.89,-81.88 81.89,-215.12 0,-297.01 -81.91,-81.86 -215.15,-81.86 -297.01,0 l -80.21,80.24 c -5.63,5.63 -13.27,8.79 -21.21,8.79 -0.21,0 -0.41,0 -0.59,0 l -3.75,-0.23 c -5.8,0 -11.48,0.44 -17.17,0.91 -8.73,0.52 -17.4,-2.47 -23.64,-8.7 l -80.98,-81.01 c -81.91,-81.86 -215.15,-81.86 -297.01,0 -81.85,81.89 -81.85,215.13 0,297.01 l 200.01,199.98 c 5.63,5.63 8.79,13.24 8.79,21.21 v 80.6 c 0,58.71 24.3,111.81 63.28,149.96 h -77.68 c -28.78,-42.93 -45.6,-94.51 -45.6,-149.96 v -68.18" /><path
         id="path88"
         style="fill:#d9a05d;fill-opacity:1;fill-rule:nonzero;stroke:none"
         d="M 4000,120.039 C 3906.56,120.039 3824.09,72.3281 3775.6,0 h 77.68 c 37.89,37.082 89.65,60.0391 146.72,60.0391 57.07,0 108.83,-22.9571 146.72,-60.0391 h 77.68 C 4175.91,72.3281 4093.44,120.039 4000,120.039" /><path
         id="path90"
         style="fill:#d9a05d;fill-opacity:1;fill-rule:nonzero;stroke:none"
         d="m 3507.43,62.2891 c -21.27,-36.8203 -108.98,-40.9805 -200.86,12.082 -91.87,53.0199 -132.19,131.0699 -110.89,167.9179 10.17,17.609 35.51,27.75 69.23,27.75 36.83,0 83.7,-12.098 131.66,-39.789 91.85,-53.059 132.16,-131.1016 110.86,-167.9609 z m 51.97,-30 c 42.05,72.8319 -16.28,182.6089 -132.83,249.9299 -116.6,67.332 -240.85,62.941 -282.86,-9.93 C 3101.67,199.461 3160.03,89.6914 3276.57,22.3906 3291.63,13.6992 3306.81,6.30859 3321.94,0 h 207.37 c 12.26,8.62109 22.58,19.2695 30.09,32.2891" /><path
         id="path92"
         style="fill:#d9a05d;fill-opacity:1;fill-rule:nonzero;stroke:none"
         d="m 4492.57,62.2891 c -21.3,36.8593 19.01,114.9019 110.86,167.9609 91.84,53 179.62,48.898 200.89,12.039 C 4825.62,205.441 4785.3,127.391 4693.43,74.3594 4601.49,21.25 4513.84,25.4688 4492.57,62.2891 Z m 363.72,209.9999 c -42.04,72.863 -166.26,77.199 -282.86,9.93 C 4456.88,214.898 4398.55,105.121 4440.6,32.2891 4448.11,19.2695 4458.43,8.62109 4470.68,0 h 207.39 c 15.12,6.30859 30.3,13.6992 45.36,22.3906 116.54,67.3008 174.9,177.0704 132.86,249.8984" /><path
         id="path94"
         style="fill:#d9a05d;fill-opacity:1;fill-rule:nonzero;stroke:none"
         d="m 3859.38,366.832 c -19.75,-51.473 -50.75,-83.383 -87.31,-89.82 -80.54,-14.063 -169.22,95.769 -194.62,239.879 -12.98,73.629 -8.14,145.398 13.57,202.121 19.74,51.48 50.74,83.379 87.3,89.828 4.66,0.82 9.35,1.199 14.03,1.199 76.18,0 156.62,-105.328 180.56,-241.09 12.98,-73.617 8.17,-145.398 -13.53,-202.117 z M 3667.89,867.898 C 3609.77,857.672 3562.57,812.41 3535,740.461 c -25.58,-66.711 -31.46,-149.801 -16.61,-234 29.82,-169.301 132.07,-290.68 239.41,-290.68 8.21,0 16.47,0.699 24.7,2.168 58.13,10.223 105.32,55.492 132.89,127.442 25.58,66.711 31.47,149.789 16.58,233.988 -32.11,182.262 -148.12,309.113 -264.08,288.519" /><path
         id="path96"
         style="fill:#d9a05d;fill-opacity:1;fill-rule:nonzero;stroke:none"
         d="m 4422.55,516.891 c -25.4,-144.11 -114.17,-254 -194.62,-239.879 -36.56,6.437 -67.56,38.347 -87.3,89.82 -21.71,56.719 -26.52,128.5 -13.54,202.117 23.94,135.762 104.38,241.09 180.56,241.09 4.68,0 9.37,-0.379 14.03,-1.199 36.56,-6.449 67.56,-38.348 87.3,-89.828 21.71,-56.723 26.55,-128.492 13.57,-202.121 z m -90.44,351.007 c -116.07,20.711 -232,-106.289 -264.08,-288.519 -14.89,-84.199 -9,-167.277 16.58,-233.988 27.57,-71.95 74.77,-117.219 132.89,-127.442 8.26,-1.469 16.46,-2.168 24.7,-2.168 107.34,0 209.59,121.41 239.41,290.68 14.85,84.199 8.97,167.289 -16.61,234 -27.57,71.949 -74.77,117.211 -132.89,127.437" /><path
         id="path98"
         style="fill:#d9a05d;fill-opacity:1;fill-rule:nonzero;stroke:none"
         d="m 4402.77,3251.24 c -81.91,-81.86 -215.15,-81.86 -297.01,0 l -80.21,80.24 c -5.63,5.63 -13.27,8.79 -21.21,8.79 -0.21,0 -0.41,0 -0.59,0 l -3.75,-0.23 c -5.8,0 -11.48,0.44 -17.17,0.9 -8.73,0.53 -17.4,-2.46 -23.64,-8.7 l -80.98,-81 c -81.91,-81.86 -215.15,-81.86 -297.01,0 -81.85,81.88 -81.85,215.12 0,297.01 l 200.01,199.98 c 5.63,5.62 8.79,13.24 8.79,21.21 v 80.6 c 0,115.78 94.22,210 210,210 115.78,0 210,-94.22 210,-210 v -96.62 c 0,-7.97 3.16,-15.59 8.79,-21.22 l 183.98,-183.95 c 81.89,-81.89 81.89,-215.13 0,-297.01 z M 4270,3765.84 v 84.2 c 0,148.88 -121.11,270 -270,270 -148.89,0 -270,-121.12 -270,-270 v -68.18 l -191.22,-191.19 c -105.26,-105.29 -105.26,-276.56 0,-381.85 105.29,-105.24 276.56,-105.24 381.85,0 l 71.37,71.36 71.34,-71.36 c 52.65,-52.62 121.79,-78.93 190.93,-78.93 69.14,0 138.28,26.31 190.93,78.93 105.29,105.26 105.29,276.59 0,381.85 L 4270,3765.84" /><path
         id="path100"
         style="fill:#d9a05d;fill-opacity:1;fill-rule:nonzero;stroke:none"
         d="m 3507.43,4062.29 c -21.27,-36.82 -108.98,-40.98 -200.86,12.08 -91.87,53.02 -132.19,131.07 -110.89,167.92 10.17,17.61 35.51,27.75 69.23,27.75 36.83,0 83.7,-12.1 131.66,-39.79 91.85,-53.06 132.16,-131.1 110.86,-167.96 z m 51.97,-30 c 42.05,72.83 -16.28,182.61 -132.83,249.93 -116.6,67.33 -240.85,62.94 -282.86,-9.93 -42.04,-72.83 16.32,-182.6 132.86,-249.9 55.31,-31.93 112.36,-47.72 161.52,-47.72 54.43,0 99.22,19.36 121.31,57.62" /><path
         id="path102"
         style="fill:#d9a05d;fill-opacity:1;fill-rule:nonzero;stroke:none"
         d="m 4693.43,4074.36 c -91.94,-53.11 -179.59,-48.89 -200.86,-12.07 -21.3,36.86 19.01,114.9 110.86,167.96 91.84,53 179.62,48.9 200.89,12.04 21.3,-36.85 -19.02,-114.9 -110.89,-167.93 z m 162.86,197.93 c -42.04,72.86 -166.26,77.2 -282.86,9.93 -116.55,-67.32 -174.88,-177.1 -132.83,-249.93 22.09,-38.26 66.85,-57.62 121.31,-57.62 49.16,0 106.21,15.79 161.52,47.72 116.54,67.3 174.9,177.07 132.86,249.9" /><path
         id="path104"
         style="fill:#d9a05d;fill-opacity:1;fill-rule:nonzero;stroke:none"
         d="m 3591.02,4719.01 c 19.74,51.48 50.74,83.38 87.3,89.83 4.66,0.82 9.35,1.2 14.03,1.2 76.18,0 156.62,-105.33 180.56,-241.09 12.98,-73.62 8.17,-145.4 -13.53,-202.12 -19.75,-51.47 -50.75,-83.38 -87.31,-89.82 -80.54,-14.06 -169.22,95.77 -194.62,239.88 -12.98,73.63 -8.14,145.4 13.57,202.12 z m 166.78,-503.23 c 8.21,0 16.47,0.7 24.7,2.17 58.13,10.22 105.32,55.49 132.89,127.44 25.58,66.71 31.47,149.79 16.58,233.99 -32.11,182.26 -148.12,309.11 -264.08,288.52 -58.12,-10.23 -105.32,-55.49 -132.89,-127.44 -25.58,-66.71 -31.46,-149.8 -16.61,-234 29.82,-169.3 132.07,-290.68 239.41,-290.68" /><path
         id="path106"
         style="fill:#d9a05d;fill-opacity:1;fill-rule:nonzero;stroke:none"
         d="m 4127.09,4568.95 c 23.94,135.76 104.38,241.09 180.56,241.09 4.68,0 9.37,-0.38 14.03,-1.2 36.56,-6.45 67.56,-38.35 87.3,-89.83 21.71,-56.72 26.55,-128.49 13.57,-202.12 -25.4,-144.11 -114.17,-254 -194.62,-239.88 -36.56,6.44 -67.56,38.35 -87.3,89.82 -21.71,56.72 -26.52,128.5 -13.54,202.12 z m 90.41,-351 c 8.26,-1.47 16.46,-2.17 24.7,-2.17 107.34,0 209.59,121.41 239.41,290.68 14.85,84.2 8.97,167.29 -16.61,234 -27.57,71.95 -74.77,117.21 -132.89,127.44 -116.07,20.71 -232,-106.29 -264.08,-288.52 -14.89,-84.2 -9,-167.28 16.58,-233.99 27.57,-71.95 74.77,-117.22 132.89,-127.44" /><path
         id="path108"
         style="fill:#58595b;fill-opacity:1;fill-rule:nonzero;stroke:none"
         d="m 5215.11,7724.23 c -39.67,-39.67 -61.5,-92.4 -61.5,-148.51 0,-56.07 21.83,-108.81 61.5,-148.47 39.78,-39.82 93.13,-61.47 148.27,-61.47 0.79,0 1.58,0 2.4,0 -0.61,-55.98 21.1,-110.3 61.47,-150.67 39.66,-39.67 92.4,-61.5 148.47,-61.5 56.11,0 108.84,21.83 148.51,61.5 74.68,74.7 81.24,192.07 19.72,274.25 L 6254.59,8000 h -84.87 l -487.91,-487.91 c -11.72,-11.72 -11.72,-30.7 0,-42.42 58.47,-58.48 58.47,-153.63 0,-212.14 -28.33,-28.33 -66.01,-43.92 -106.09,-43.92 -40.05,0 -77.72,15.59 -106.05,43.92 -35.6,35.6 -50.89,86.4 -40.9,135.94 1.99,9.84 -1.11,20.04 -8.2,27.13 -5.69,5.68 -13.33,8.79 -21.21,8.79 -1.97,0 -3.96,-0.21 -5.95,-0.59 -49.45,-10.02 -100.28,5.24 -135.88,40.87 -28.33,28.33 -43.92,66.01 -43.92,106.05 0,40.08 15.59,77.76 43.92,106.09 58.48,58.48 153.66,58.48 212.14,0 11.72,-11.72 30.7,-11.72 42.42,0 L 5830.28,8000 h -84.87 l -256.05,-256.05 c -82.15,61.49 -199.6,54.96 -274.25,-19.72" /><path
         id="path110"
         style="fill:#58595b;fill-opacity:1;fill-rule:nonzero;stroke:none"
         d="m 6784.89,275.77 c 39.67,39.671 61.5,92.402 61.5,148.511 0,56.071 -21.83,108.809 -61.5,148.469 -39.78,39.82 -93.13,61.469 -148.27,61.469 -0.79,0 -1.58,0 -2.4,0 0.61,55.992 -21.09,110.301 -61.47,150.672 -39.66,39.668 -92.4,61.5 -148.47,61.5 -56.11,0 -108.84,-21.832 -148.51,-61.5 -74.68,-74.7 -81.24,-192.071 -19.72,-274.25 L 5745.41,0 h 84.87 l 487.91,487.91 c 11.72,11.719 11.72,30.699 0,42.422 -58.47,58.477 -58.47,153.629 0,212.137 28.33,28.332 66.01,43.922 106.09,43.922 40.05,0 77.72,-15.59 106.05,-43.922 35.6,-35.598 50.89,-86.399 40.9,-135.938 -1.99,-9.84 1.11,-20.043 8.2,-27.133 7.09,-7.109 17.17,-10.128 27.16,-8.199 49.48,10.02 100.29,-5.269 135.88,-40.867 28.33,-28.332 43.92,-66 43.92,-106.051 0,-40.082 -15.59,-77.761 -43.92,-106.09 -58.48,-58.472 -153.66,-58.472 -212.14,0 -11.72,11.719 -30.7,11.719 -42.42,0 L 6169.72,0 h 84.87 l 256.05,256.051 c 82.12,-61.52 199.57,-54.961 274.25,19.719" /><path
         id="path112"
         style="fill:#58595b;fill-opacity:1;fill-rule:nonzero;stroke:none"
         d="m 6487.91,4318.19 -806.1,-806.1 c -11.72,-11.72 -11.72,-30.7 0,-42.42 58.47,-58.48 58.47,-153.63 0,-212.14 -28.33,-28.33 -66.01,-43.92 -106.09,-43.92 -40.05,0 -77.72,15.59 -106.05,43.92 -35.6,35.59 -50.89,86.4 -40.9,135.94 1.99,9.84 -1.11,20.04 -8.2,27.13 -5.69,5.68 -13.33,8.78 -21.21,8.78 -1.97,0 -3.96,-0.2 -5.95,-0.58 -49.45,-10.02 -100.28,5.24 -135.88,40.87 -28.33,28.33 -43.92,66 -43.92,106.05 0,40.08 15.59,77.76 43.92,106.09 58.48,58.47 153.66,58.47 212.14,0 11.72,-11.72 30.7,-11.72 42.42,0 l 806.1,806.1 c 11.72,11.72 11.72,30.7 0,42.42 -58.47,58.48 -58.47,153.63 0,212.14 28.33,28.33 66.01,43.92 106.09,43.92 40.05,0 77.72,-15.59 106.05,-43.92 35.6,-35.6 50.89,-86.4 40.9,-135.94 -1.99,-9.84 1.11,-20.04 8.2,-27.13 7.09,-7.11 17.17,-10.13 27.16,-8.2 49.48,10.02 100.29,-5.27 135.88,-40.87 28.33,-28.33 43.92,-66 43.92,-106.05 0,-40.08 -15.59,-77.76 -43.92,-106.09 -58.48,-58.47 -153.66,-58.47 -212.14,0 -11.72,11.72 -30.7,11.72 -42.42,0 z m 296.98,-42.42 c 39.67,39.67 61.5,92.4 61.5,148.51 0,56.07 -21.83,108.81 -61.5,148.47 -39.78,39.82 -93.13,61.47 -148.27,61.47 -0.79,0 -1.58,0 -2.4,0 0.61,55.99 -21.09,110.3 -61.47,150.67 -39.66,39.67 -92.4,61.5 -148.47,61.5 -56.11,0 -108.84,-21.83 -148.51,-61.5 -74.68,-74.7 -81.24,-192.07 -19.72,-274.25 l -766.69,-766.69 c -82.15,61.49 -199.6,54.96 -274.25,-19.72 -39.67,-39.67 -61.5,-92.4 -61.5,-148.51 0,-56.07 21.83,-108.81 61.5,-148.47 39.78,-39.82 93.13,-61.47 148.27,-61.47 0.79,0 1.58,0 2.4,0 -0.61,-55.99 21.1,-110.3 61.47,-150.67 39.66,-39.67 92.4,-61.5 148.47,-61.5 56.11,0 108.84,21.83 148.51,61.5 74.68,74.7 81.24,192.07 19.72,274.25 l 766.69,766.69 c 82.12,-61.52 199.57,-54.96 274.25,19.72" /><path
         id="path114"
         style="fill:#d9a05d;fill-opacity:1;fill-rule:nonzero;stroke:none"
         d="m 6402.77,1251.24 c -81.91,-81.86 -215.15,-81.86 -297.01,0 l -80.21,80.24 c -5.63,5.63 -13.27,8.79 -21.21,8.79 -0.21,0 -0.41,0 -0.59,0 l -3.75,-0.23 c -5.8,0 -11.48,0.44 -17.17,0.9 -8.73,0.53 -17.4,-2.46 -23.64,-8.7 l -80.98,-81 c -81.91,-81.86 -215.15,-81.86 -297.01,0 -81.85,81.88 -81.85,215.12 0,297.01 l 200.01,199.98 c 5.63,5.62 8.79,13.24 8.79,21.21 v 80.6 c 0,115.78 94.22,210 210,210 115.78,0 210,-94.22 210,-210 v -96.62 c 0,-7.97 3.16,-15.59 8.79,-21.22 l 183.98,-183.95 c 81.89,-81.89 81.89,-215.13 0,-297.01 z M 6270,1765.84 v 84.2 c 0,148.88 -121.11,270 -270,270 -148.89,0 -270,-121.12 -270,-270 v -68.18 l -191.22,-191.19 c -105.26,-105.29 -105.26,-276.56 0,-381.85 105.29,-105.24 276.56,-105.24 381.85,0 l 71.37,71.36 71.34,-71.36 c 52.65,-52.62 121.79,-78.93 190.93,-78.93 69.14,0 138.28,26.31 190.93,78.93 105.29,105.26 105.29,276.59 0,381.85 L 6270,1765.84" /><path
         id="path116"
         style="fill:#d9a05d;fill-opacity:1;fill-rule:nonzero;stroke:none"
         d="m 5507.43,2062.29 c -21.27,-36.82 -108.98,-40.98 -200.86,12.08 -91.87,53.02 -132.19,131.07 -110.89,167.92 10.17,17.61 35.51,27.75 69.23,27.75 36.83,0 83.7,-12.1 131.66,-39.79 91.85,-53.06 132.16,-131.1 110.86,-167.96 z m 51.97,-30 c 42.05,72.83 -16.28,182.61 -132.83,249.93 -116.6,67.33 -240.85,62.94 -282.86,-9.93 -42.04,-72.83 16.32,-182.6 132.86,-249.9 55.31,-31.93 112.36,-47.72 161.52,-47.72 54.43,0 99.22,19.36 121.31,57.62" /><path
         id="path118"
         style="fill:#d9a05d;fill-opacity:1;fill-rule:nonzero;stroke:none"
         d="m 6693.43,2074.36 c -91.94,-53.11 -179.59,-48.89 -200.86,-12.07 -21.3,36.86 19.01,114.9 110.86,167.96 91.84,53 179.62,48.9 200.89,12.04 21.3,-36.85 -19.02,-114.9 -110.89,-167.93 z m 162.86,197.93 c -42.04,72.86 -166.26,77.2 -282.86,9.93 -116.55,-67.32 -174.88,-177.1 -132.83,-249.93 22.09,-38.26 66.85,-57.62 121.31,-57.62 49.16,0 106.21,15.79 161.52,47.72 116.54,67.3 174.9,177.07 132.86,249.9" /><path
         id="path120"
         style="fill:#d9a05d;fill-opacity:1;fill-rule:nonzero;stroke:none"
         d="m 5591.02,2719.01 c 19.74,51.48 50.74,83.38 87.3,89.83 4.66,0.82 9.35,1.2 14.03,1.2 76.18,0 156.62,-105.33 180.56,-241.09 12.98,-73.62 8.17,-145.4 -13.53,-202.12 -19.75,-51.47 -50.75,-83.38 -87.31,-89.82 -80.54,-14.06 -169.22,95.77 -194.62,239.88 -12.98,73.63 -8.14,145.4 13.57,202.12 z m 166.78,-503.23 c 8.21,0 16.47,0.7 24.7,2.17 58.13,10.22 105.32,55.49 132.89,127.44 25.58,66.71 31.47,149.79 16.58,233.99 -32.11,182.26 -148.12,309.11 -264.08,288.52 -58.12,-10.23 -105.32,-55.49 -132.89,-127.44 -25.58,-66.71 -31.46,-149.8 -16.61,-234 29.82,-169.3 132.07,-290.68 239.41,-290.68" /><path
         id="path122"
         style="fill:#d9a05d;fill-opacity:1;fill-rule:nonzero;stroke:none"
         d="m 6127.09,2568.95 c 23.94,135.76 104.38,241.09 180.56,241.09 4.68,0 9.37,-0.38 14.03,-1.2 36.56,-6.45 67.56,-38.35 87.3,-89.83 21.71,-56.72 26.55,-128.49 13.57,-202.12 -25.4,-144.11 -114.17,-254 -194.62,-239.88 -36.56,6.44 -67.56,38.35 -87.3,89.82 -21.71,56.72 -26.52,128.5 -13.54,202.12 z m 90.41,-351 c 8.26,-1.47 16.46,-2.17 24.7,-2.17 107.34,0 209.59,121.41 239.41,290.68 14.85,84.2 8.97,167.29 -16.61,234 -27.57,71.95 -74.77,117.21 -132.89,127.44 -116.07,20.71 -232,-106.29 -264.08,-288.52 -14.89,-84.2 -9,-167.28 16.58,-233.99 27.57,-71.95 74.77,-117.22 132.89,-127.44" /><path
         id="path124"
         style="fill:#d9a05d;fill-opacity:1;fill-rule:nonzero;stroke:none"
         d="m 6000,6060.04 c 115.78,0 210,-94.22 210,-210 v -96.62 c 0,-7.97 3.16,-15.59 8.79,-21.22 l 183.98,-183.95 c 81.89,-81.89 81.89,-215.13 0,-297.01 -81.91,-81.86 -215.15,-81.86 -297.01,0 l -80.21,80.24 c -5.63,5.63 -13.27,8.79 -21.21,8.79 -0.21,0 -0.41,0 -0.59,0 l -3.75,-0.23 c -5.8,0 -11.48,0.44 -17.17,0.9 -8.73,0.53 -17.4,-2.46 -23.64,-8.7 l -80.98,-81 c -81.91,-81.86 -215.15,-81.86 -297.01,0 -81.85,81.88 -81.85,215.12 0,297.01 l 200.01,199.98 c 5.63,5.62 8.79,13.24 8.79,21.21 v 80.6 c 0,115.78 94.22,210 210,210 z m -270,-210 v -68.18 l -191.22,-191.19 c -105.26,-105.29 -105.26,-276.56 0,-381.85 105.29,-105.24 276.56,-105.24 381.85,0 l 71.37,71.36 71.34,-71.36 c 52.65,-52.62 121.79,-78.93 190.93,-78.93 69.14,0 138.28,26.31 190.93,78.93 105.29,105.26 105.29,276.59 0,381.85 L 6270,5765.84 v 84.2 c 0,148.88 -121.11,270 -270,270 -148.89,0 -270,-121.12 -270,-270" /><path
         id="path126"
         style="fill:#d9a05d;fill-opacity:1;fill-rule:nonzero;stroke:none"
         d="m 5195.68,6242.29 c 10.17,17.61 35.51,27.75 69.23,27.75 36.83,0 83.7,-12.1 131.66,-39.79 91.85,-53.06 132.16,-131.1 110.86,-167.96 -21.27,-36.82 -108.98,-40.98 -200.86,12.08 -91.87,53.02 -132.19,131.07 -110.89,167.92 z m 80.89,-219.9 c 55.31,-31.93 112.36,-47.72 161.52,-47.72 54.43,0 99.22,19.36 121.31,57.62 42.05,72.83 -16.28,182.61 -132.83,249.93 -116.6,67.33 -240.85,62.94 -282.86,-9.93 -42.04,-72.83 16.32,-182.6 132.86,-249.9" /><path
         id="path128"
         style="fill:#d9a05d;fill-opacity:1;fill-rule:nonzero;stroke:none"
         d="m 6693.43,6074.36 c -91.94,-53.11 -179.59,-48.89 -200.86,-12.07 -21.3,36.86 19.01,114.9 110.86,167.96 91.84,53 179.62,48.9 200.89,12.04 21.3,-36.85 -19.02,-114.9 -110.89,-167.93 z m -120,207.86 c -116.55,-67.32 -174.88,-177.1 -132.83,-249.93 22.09,-38.26 66.85,-57.62 121.31,-57.62 49.16,0 106.21,15.79 161.52,47.72 116.54,67.3 174.9,177.07 132.86,249.9 -42.04,72.86 -166.26,77.2 -282.86,9.93" /><path
         id="path130"
         style="fill:#d9a05d;fill-opacity:1;fill-rule:nonzero;stroke:none"
         d="m 5591.02,6719.01 c 19.74,51.48 50.74,83.38 87.3,89.83 4.66,0.82 9.35,1.2 14.03,1.2 76.18,0 156.62,-105.33 180.56,-241.09 12.98,-73.62 8.17,-145.4 -13.53,-202.12 -19.75,-51.47 -50.75,-83.38 -87.31,-89.82 -80.54,-14.06 -169.22,95.77 -194.62,239.88 -12.98,73.63 -8.14,145.4 13.57,202.12 z m 166.78,-503.23 c 8.21,0 16.47,0.7 24.7,2.17 58.13,10.22 105.32,55.49 132.89,127.44 25.58,66.71 31.47,149.79 16.58,233.99 -32.11,182.26 -148.12,309.11 -264.08,288.52 -58.12,-10.23 -105.32,-55.49 -132.89,-127.44 -25.58,-66.71 -31.46,-149.8 -16.61,-234 29.82,-169.3 132.07,-290.68 239.41,-290.68" /><path
         id="path132"
         style="fill:#d9a05d;fill-opacity:1;fill-rule:nonzero;stroke:none"
         d="m 6127.09,6568.95 c 23.94,135.76 104.38,241.09 180.56,241.09 4.68,0 9.37,-0.38 14.03,-1.2 36.56,-6.45 67.56,-38.35 87.3,-89.83 21.71,-56.72 26.55,-128.49 13.57,-202.12 -25.4,-144.11 -114.17,-254 -194.62,-239.88 -36.56,6.44 -67.56,38.35 -87.3,89.82 -21.71,56.72 -26.52,128.5 -13.54,202.12 z m 90.41,-351 c 8.26,-1.47 16.46,-2.17 24.7,-2.17 107.34,0 209.59,121.41 239.41,290.68 14.85,84.2 8.97,167.29 -16.61,234 -27.57,71.95 -74.77,117.21 -132.89,127.44 -116.07,20.71 -232,-106.29 -264.08,-288.52 -14.89,-84.2 -9,-167.28 16.58,-233.99 27.57,-71.95 74.77,-117.22 132.89,-127.44" /><path
         id="path134"
         style="fill:#d9a05d;fill-opacity:1;fill-rule:nonzero;stroke:none"
         d="m 3529.31,8000 h -207.37 c 40.41,-16.86 80.37,-25.34 116.15,-25.34 35.91,0 67.45,8.62 91.22,25.34" /><path
         id="path136"
         style="fill:#d9a05d;fill-opacity:1;fill-rule:nonzero;stroke:none"
         d="m 4678.07,8000 h -207.39 c 23.76,-16.72 55.3,-25.34 91.23,-25.34 35.78,0 75.74,8.48 116.16,25.34" /></g></g></svg>